HIERARCHY
ROOT Hips
{
	OFFSET 0.000000 121.760803 0.000000
	CHANNELS 6 Xposition Yposition Zposition Xrotation Yrotation Zrotation 
	JOINT Spine
	{
		OFFSET 0.072000 7.257294 -0.789700
		CHANNELS 3 Xrotation Yrotation Zrotation
		JOINT Spine1
		{
			OFFSET 0.000000 12.508769 -0.658067
			CHANNELS 3 Xrotation Yrotation Zrotation
			JOINT Spine1_split
			{
				OFFSET 0.000000 12.508769 -0.658067
				CHANNELS 3 Xrotation Yrotation Zrotation
				JOINT Spine2
				{
					OFFSET 0.000000 12.508769 -0.658067
					CHANNELS 3 Xrotation Yrotation Zrotation
					JOINT Neck
					{
						OFFSET 0.000000 14.033295 7.520400
						CHANNELS 3 Xrotation Yrotation Zrotation
						JOINT Head
						{
							OFFSET 0.000000 8.198502 5.703100
							CHANNELS 3 Xrotation Yrotation Zrotation
							JOINT HeadTop_End
							{
								OFFSET 0.000000 17.760803 13.332701
								CHANNELS 3 Xrotation Yrotation Zrotation
								End Site
								{
									OFFSET 0.000000 0.000000 0.000000
								}
							}
						}
					}
					JOINT LeftShoulder
					{
						OFFSET 6.292450 5.785301 -0.669000
						CHANNELS 3 Xrotation Yrotation Zrotation
						JOINT LeftShoulder_split
						{
							OFFSET 6.292450 5.785301 -0.669000
							CHANNELS 3 Xrotation Yrotation Zrotation
							JOINT LeftArm
							{
								OFFSET 13.907140 -6.093903 1.965100
								CHANNELS 3 Xrotation Yrotation Zrotation
								JOINT LeftForeArm
								{
									OFFSET 34.140198 0.000000 0.000000
									CHANNELS 3 Xrotation Yrotation Zrotation
									JOINT LeftHand
									{
										OFFSET 40.960209 0.000000 0.000000
										CHANNELS 3 Xrotation Yrotation Zrotation
										JOINT LeftHandThumb1
										{
											OFFSET 10.006996 -7.170425 9.573125
											CHANNELS 3 Xrotation Yrotation Zrotation
											JOINT LeftHandThumb2
											{
												OFFSET 1.835007 -1.059448 1.059443
												CHANNELS 3 Xrotation Yrotation Zrotation
												JOINT LeftHandThumb3
												{
													OFFSET 2.112267 -1.219513 1.219518
													CHANNELS 3 Xrotation Yrotation Zrotation
													JOINT LeftHandThumb4
													{
														OFFSET 4.843811 -2.796570 2.796576
														CHANNELS 3 Xrotation Yrotation Zrotation
														End Site
														{
															OFFSET 0.000000 0.000000 0.000000
														}
													}
												}
											}
										}
										JOINT LeftHandIndex1
										{
											OFFSET 18.389847 -0.922348 4.596882
											CHANNELS 3 Xrotation Yrotation Zrotation
											JOINT LeftHandIndex2
											{
												OFFSET 4.711273 0.000000 0.000000
												CHANNELS 3 Xrotation Yrotation Zrotation
												JOINT LeftHandIndex3
												{
													OFFSET 2.886131 0.000000 0.000000
													CHANNELS 3 Xrotation Yrotation Zrotation
													JOINT LeftHandIndex4
													{
														OFFSET 6.145912 0.000000 0.000000
														CHANNELS 3 Xrotation Yrotation Zrotation
														End Site
														{
															OFFSET 0.000000 0.000000 0.000000
														}
													}
												}
											}
										}
										JOINT LeftHandMiddle1
										{
											OFFSET 18.013008 0.000000 0.000000
											CHANNELS 3 Xrotation Yrotation Zrotation
											JOINT LeftHandMiddle2
											{
												OFFSET 4.946693 0.000000 0.000000
												CHANNELS 3 Xrotation Yrotation Zrotation
												JOINT LeftHandMiddle3
												{
													OFFSET 3.342232 0.000000 0.000000
													CHANNELS 3 Xrotation Yrotation Zrotation
													JOINT LeftHandMiddle4
													{
														OFFSET 4.461754 0.000000 0.000000
														CHANNELS 3 Xrotation Yrotation Zrotation
														End Site
														{
															OFFSET 0.000000 0.000000 0.000000
														}
													}
												}
											}
										}
										JOINT LeftHandRing1
										{
											OFFSET 15.849892 -0.102921 -4.126150
											CHANNELS 3 Xrotation Yrotation Zrotation
											JOINT LeftHandRing2
											{
												OFFSET 3.527054 0.000000 0.000000
												CHANNELS 3 Xrotation Yrotation Zrotation
												JOINT LeftHandRing3
												{
													OFFSET 2.961098 0.000000 0.000000
													CHANNELS 3 Xrotation Yrotation Zrotation
													JOINT LeftHandRing4
													{
														OFFSET 4.927200 0.000000 0.000000
														CHANNELS 3 Xrotation Yrotation Zrotation
														End Site
														{
															OFFSET 0.000000 0.000000 0.000000
														}
													}
												}
											}
										}
										JOINT LeftHandPinky1
										{
											OFFSET 12.791824 -0.832031 -6.799156
											CHANNELS 3 Xrotation Yrotation Zrotation
											JOINT LeftHandPinky2
											{
												OFFSET 3.327133 0.000000 0.000000
												CHANNELS 3 Xrotation Yrotation Zrotation
												JOINT LeftHandPinky3
												{
													OFFSET 3.014900 0.000000 0.000000
													CHANNELS 3 Xrotation Yrotation Zrotation
													JOINT LeftHandPinky4
													{
														OFFSET 5.847786 0.000000 0.000000
														CHANNELS 3 Xrotation Yrotation Zrotation
														End Site
														{
															OFFSET 0.000000 0.000000 0.000000
														}
													}
												}
											}
										}
									}
								}
							}
						}
					}
					JOINT RightShoulder
					{
						OFFSET -6.292450 5.785301 -0.669000
						CHANNELS 3 Xrotation Yrotation Zrotation
						JOINT RightShoulder_split
						{
							OFFSET -6.292450 5.785301 -0.669000
							CHANNELS 3 Xrotation Yrotation Zrotation
							JOINT RightArm
							{
								OFFSET -13.907140 -6.093903 1.965100
								CHANNELS 3 Xrotation Yrotation Zrotation
								JOINT RightForeArm
								{
									OFFSET -34.140198 0.000000 0.000000
									CHANNELS 3 Xrotation Yrotation Zrotation
									JOINT RightHand
									{
										OFFSET -40.960209 0.000000 0.000000
										CHANNELS 3 Xrotation Yrotation Zrotation
										JOINT RightHandThumb1
										{
											OFFSET -10.007050 -7.170456 9.573117
											CHANNELS 3 Xrotation Yrotation Zrotation
											JOINT RightHandThumb2
											{
												OFFSET -1.835007 -1.059448 1.059443
												CHANNELS 3 Xrotation Yrotation Zrotation
												JOINT RightHandThumb3
												{
													OFFSET -2.112267 -1.219513 1.219518
													CHANNELS 3 Xrotation Yrotation Zrotation
													JOINT RightHandThumb4
													{
														OFFSET -4.843834 -2.796585 2.796590
														CHANNELS 3 Xrotation Yrotation Zrotation
														End Site
														{
															OFFSET 0.000000 0.000000 0.000000
														}
													}
												}
											}
										}
										JOINT RightHandIndex1
										{
											OFFSET -18.389870 -0.922424 4.596786
											CHANNELS 3 Xrotation Yrotation Zrotation
											JOINT RightHandIndex2
											{
												OFFSET -4.711273 0.000000 0.000000
												CHANNELS 3 Xrotation Yrotation Zrotation
												JOINT RightHandIndex3
												{
													OFFSET -2.886131 0.000000 0.000000
													CHANNELS 3 Xrotation Yrotation Zrotation
													JOINT RightHandIndex4
													{
														OFFSET -6.145920 0.000000 0.000000
														CHANNELS 3 Xrotation Yrotation Zrotation
														End Site
														{
															OFFSET 0.000000 0.000000 0.000000
														}
													}
												}
											}
										}
										JOINT RightHandMiddle1
										{
											OFFSET -18.013008 0.000000 0.000000
											CHANNELS 3 Xrotation Yrotation Zrotation
											JOINT RightHandMiddle2
											{
												OFFSET -4.946693 0.000000 0.000000
												CHANNELS 3 Xrotation Yrotation Zrotation
												JOINT RightHandMiddle3
												{
													OFFSET -3.342232 0.000000 0.000000
													CHANNELS 3 Xrotation Yrotation Zrotation
													JOINT RightHandMiddle4
													{
														OFFSET -4.461754 0.000000 0.000000
														CHANNELS 3 Xrotation Yrotation Zrotation
														End Site
														{
															OFFSET 0.000000 0.000000 0.000000
														}
													}
												}
											}
										}
										JOINT RightHandRing1
										{
											OFFSET -15.849876 -0.102936 -4.126237
											CHANNELS 3 Xrotation Yrotation Zrotation
											JOINT RightHandRing2
											{
												OFFSET -3.527054 0.000000 0.000000
												CHANNELS 3 Xrotation Yrotation Zrotation
												JOINT RightHandRing3
												{
													OFFSET -2.961098 0.000000 0.000000
													CHANNELS 3 Xrotation Yrotation Zrotation
													JOINT RightHandRing4
													{
														OFFSET -4.927200 0.000000 0.000000
														CHANNELS 3 Xrotation Yrotation Zrotation
														End Site
														{
															OFFSET 0.000000 0.000000 0.000000
														}
													}
												}
											}
										}
										JOINT RightHandPinky1
										{
											OFFSET -12.791786 -0.832077 -6.799222
											CHANNELS 3 Xrotation Yrotation Zrotation
											JOINT RightHandPinky2
											{
												OFFSET -3.327133 0.000000 0.000000
												CHANNELS 3 Xrotation Yrotation Zrotation
												JOINT RightHandPinky3
												{
													OFFSET -3.014900 0.000000 0.000000
													CHANNELS 3 Xrotation Yrotation Zrotation
													JOINT RightHandPinky4
													{
														OFFSET -5.847786 0.000000 0.000000
														CHANNELS 3 Xrotation Yrotation Zrotation
														End Site
														{
															OFFSET 0.000000 0.000000 0.000000
														}
													}
												}
											}
										}
									}
								}
							}
						}
					}
				}
			}
		}
	}
	JOINT LeftUpLeg
	{
		OFFSET 13.026900 -6.336304 -1.092800
		CHANNELS 3 Xrotation Yrotation Zrotation
		JOINT LeftLeg
		{
			OFFSET 0.524474 -46.096886 9.782700
			CHANNELS 3 Xrotation Yrotation Zrotation
			JOINT LeftFoot
			{
				OFFSET -0.524474 -53.427422 -12.948200
				CHANNELS 3 Xrotation Yrotation Zrotation
				JOINT LeftToeBase
				{
					OFFSET 0.192200 -14.009700 16.364100
					CHANNELS 3 Xrotation Yrotation Zrotation
					JOINT LeftToe_End
					{
						OFFSET -1.784700 -0.561700 9.474800
						CHANNELS 3 Xrotation Yrotation Zrotation
						End Site
						{
							OFFSET 0.000000 0.000000 0.000000
						}
					}
				}
			}
		}
	}
	JOINT RightUpLeg
	{
		OFFSET -12.883000 -6.336304 -1.092800
		CHANNELS 3 Xrotation Yrotation Zrotation
		JOINT RightLeg
		{
			OFFSET -0.524587 -46.096825 9.782800
			CHANNELS 3 Xrotation Yrotation Zrotation
			JOINT RightFoot
			{
				OFFSET 0.524587 -53.427383 -12.948300
				CHANNELS 3 Xrotation Yrotation Zrotation
				JOINT RightToeBase
				{
					OFFSET -0.192200 -14.009700 16.364100
					CHANNELS 3 Xrotation Yrotation Zrotation
					JOINT RightToe_End
					{
						OFFSET 1.784700 -0.561700 9.474800
						CHANNELS 3 Xrotation Yrotation Zrotation
						End Site
						{
							OFFSET 0.000000 0.000000 0.000000
						}
					}
				}
			}
		}
	}
}
MOTION
Frames: 4
Frame Time: 0.016667
1.229962 106.182884 1.689675 5.321747 -6.890686 -1.934705 9.118005 3.586358 5.827840 6.474933 1.246103 1.050138 0.000000 0.000000 0.000000 6.471416 1.202600 1.091238 2.140433 -0.614931 -1.384966 -3.656099 -2.727633 0.126230 0.000002 0.000000 -0.000000 1.724429 -9.915033 -14.935001 0.000000 0.000000 0.000000 -25.063142 2.043301 -69.542165 -0.000003 -31.031284 -0.000017 13.812956 3.247838 3.605244 -6.000713 -6.126814 4.616735 7.611092 24.884952 2.404803 -4.383193 25.960694 19.454330 0.000000 -0.000000 -0.000003 0.627459 4.865861 -25.301813 0.596887 2.578225 -26.066018 0.209949 1.555816 -15.369524 -0.000001 0.000001 -0.000001 0.227914 3.736614 -13.565802 0.647526 2.679129 -27.169710 0.040231 0.686104 -6.710908 0.000002 0.000001 0.000002 0.497547 4.571291 -22.150802 0.640342 2.665139 -27.016050 0.462549 2.283481 -22.899423 0.000000 -0.000000 0.000001 0.820476 5.237552 -29.403158 0.162689 1.372392 -13.519847 0.462550 2.283470 -22.899396 0.000003 0.000000 0.000004 4.830918 17.858066 5.566073 0.000000 0.000000 0.000000 -15.198231 0.576451 66.754977 0.000002 21.881879 0.000016 11.551348 9.546661 1.170292 -7.540276 -3.885174 -4.751889 7.955427 -28.077798 -3.121263 -4.006977 -18.468400 -17.389969 -0.000000 0.000002 0.000002 0.082436 -1.088637 14.291458 0.320877 -1.700383 21.371548 0.152983 -1.185064 14.710368 -0.000001 -0.000000 0.000001 0.522809 -4.330229 26.060448 0.321176 -1.701138 21.381537 0.457704 -2.015197 25.590263 0.000000 0.000000 -0.000002 2.075034 -6.645785 34.808912 0.321864 -1.702912 21.404863 0.457731 -2.015246 25.590740 -0.000000 0.000000 0.000001 1.502786 -7.627451 42.127774 0.321172 -1.701134 21.381412 0.457707 -2.015194 25.590185 0.000000 0.000002 -0.000000 -41.025193 6.257010 21.274246 56.572572 7.605587 -1.476690 17.943356 6.340948 -11.697801 -33.705781 0.157650 -2.935459 -0.000000 -0.000003 0.000000 -32.439840 -6.309751 4.902052 42.452484 -1.670075 -1.185883 -17.120928 -5.382548 -3.262604 5.850611 0.000082 -0.003563 0.000000 0.000000 -0.000000 
1.165174 106.285454 1.781935 5.342496 -6.908331 -1.696456 9.110654 3.602375 5.816521 6.470718 1.252374 1.050136 0.000000 0.000000 0.000000 6.467358 1.205347 1.091238 2.140433 -0.627687 -1.373677 -3.654020 -2.810160 -0.098613 0.000001 -0.000000 -0.000000 1.719461 -9.903874 -14.934629 0.000000 0.000000 0.000000 -24.909463 1.975397 -69.518478 -0.000002 -31.046236 -0.000006 13.575646 3.329222 3.235262 -6.000714 -6.126810 4.616733 7.611095 24.884956 2.404803 -4.383192 25.960692 19.454332 -0.000001 -0.000001 0.000001 0.631455 4.874262 -25.392803 0.600988 2.586572 -26.156887 0.212419 1.564768 -15.460275 -0.000000 -0.000002 -0.000005 0.229970 3.745039 -13.650463 0.651212 2.686316 -27.248753 0.041118 0.693604 -6.784543 -0.000002 0.000000 -0.000001 0.500606 4.578777 -22.229932 0.643789 2.671855 -27.089842 0.465308 2.289962 -22.968345 -0.000001 -0.000001 0.000001 0.824196 5.244118 -29.477116 0.164338 1.379249 -13.588674 0.465121 2.289536 -22.963835 -0.000000 0.000002 0.000000 4.818722 17.839440 5.583533 0.000000 0.000000 0.000000 -15.265591 -0.058701 66.673800 0.000000 21.871314 0.000006 12.264139 9.590641 0.896120 -7.540274 -3.885177 -4.751889 7.955429 -28.077794 -3.121261 -4.006975 -18.468396 -17.389969 0.000000 0.000002 0.000002 0.081294 -1.093034 14.345808 0.324228 -1.708920 21.484196 0.155315 -1.193915 14.822991 -0.000002 0.000002 0.000003 0.524613 -4.333903 26.110847 0.324037 -1.708448 21.477912 0.460866 -2.021766 25.679860 -0.000001 -0.000001 0.000000 2.078605 -6.647924 34.855859 0.324532 -1.709711 21.494453 0.460671 -2.021344 25.674196 0.000000 -0.000003 0.000002 1.506856 -7.629875 42.171459 0.323659 -1.707455 21.464846 0.460443 -2.020900 25.668100 -0.000000 0.000001 0.000000 -41.567135 7.487541 21.712690 56.214021 8.153758 -1.526606 17.836341 5.004457 -11.124084 -33.324278 0.145481 -2.837724 -0.000000 -0.000001 0.000000 -32.412424 -6.230582 4.627047 42.334479 -1.967315 -1.178059 -17.001902 -4.994621 -3.124190 5.632509 0.000090 -0.003457 0.000000 0.000000 0.000000 
1.054778 106.390022 1.980989 5.369462 -6.902484 -1.374000 9.088618 3.634828 5.792751 6.458224 1.270576 1.050137 0.000000 0.000000 0.000000 6.454852 1.219981 1.086653 2.140428 -0.658715 -1.366249 -3.626634 -2.970674 -0.373950 -0.000000 0.000000 -0.000000 1.707817 -9.871296 -14.933502 0.000000 0.000000 0.000000 -24.720379 1.875868 -69.543402 0.000001 -31.071801 -0.000014 13.451185 3.530292 2.736899 -6.000716 -6.126814 4.616734 7.611094 24.884958 2.404799 -4.383194 25.960695 19.454332 -0.000001 0.000001 -0.000000 0.643182 4.898759 -25.658656 0.613020 2.610903 -26.422271 0.219712 1.590921 -15.725288 -0.000001 -0.000000 -0.000003 0.236007 3.769628 -13.897909 0.662084 2.707308 -27.479820 0.043767 0.715498 -6.999816 0.000002 0.000003 0.000006 0.509618 4.600630 -22.461185 0.653874 2.691475 -27.305561 0.473388 2.308931 -23.169803 0.000001 0.000001 0.000002 0.835135 5.263297 -29.693353 0.169208 1.399272 -13.789947 0.472682 2.307286 -23.152284 0.000001 0.000000 0.000001 4.783118 17.784935 5.634549 0.000000 0.000000 0.000000 -15.255321 -0.757017 66.514465 0.000006 21.916142 -0.000011 12.968071 9.611775 0.635168 -7.540274 -3.885177 -4.751889 7.955425 -28.077799 -3.121262 -4.006974 -18.468398 -17.389969 0.000003 -0.000003 -0.000001 0.084249 -1.104384 14.506171 0.334190 -1.734024 21.815998 0.162309 -1.220010 15.154636 0.000000 0.000001 0.000001 0.529952 -4.344721 26.259333 0.332570 -1.729965 21.762207 0.470235 -2.041129 25.944262 -0.000000 -0.000001 -0.000002 2.089179 -6.654233 34.994221 0.332473 -1.729699 21.758901 0.469391 -2.039401 25.920563 0.000000 -0.000002 -0.000000 1.515884 -7.639725 42.300004 0.331038 -1.726102 21.711156 0.468597 -2.037766 25.898307 0.000000 -0.000002 0.000001 -41.893433 7.905799 21.060832 55.796447 8.611694 -1.573201 17.286106 3.656637 -10.495572 -32.556749 0.141651 -2.830039 -0.000000 0.000001 0.000000 -32.291458 -6.107941 4.291399 42.283621 -2.298763 -1.168877 -17.121708 -4.581468 -2.983226 5.643408 0.000088 -0.003454 0.000000 0.000000 -0.000000 
0.893067 106.508942 2.276171 5.401196 -6.875365 -0.984179 9.052255 3.681113 5.755480 6.437236 1.301644 1.047208 0.000000 0.000000 0.000000 6.434238 1.243750 1.079201 2.140443 -0.705677 -1.362457 -3.574625 -3.199441 -0.688518 -0.000003 -0.000000 -0.000000 1.689953 -9.818014 -14.926641 0.000000 0.000000 0.000000 -24.496736 1.749456 -69.601492 0.000003 -31.094791 0.000011 13.416804 3.707216 2.149802 -6.000718 -6.126813 4.616739 7.611096 24.884958 2.404800 -4.383192 25.960692 19.454330 0.000001 -0.000002 -0.000002 0.662408 4.938243 -26.088502 0.632717 2.650129 -26.851374 0.231772 1.633112 -16.153867 0.000000 -0.000001 -0.000004 0.246002 3.809357 -14.298152 0.679858 2.741153 -27.853684 0.048225 0.750924 -7.348242 0.000000 0.000000 0.000001 0.524392 4.635907 -22.835363 0.670367 2.723148 -27.654707 0.486613 2.339580 -23.495989 0.000001 -0.000001 -0.000001 0.852995 5.294265 -30.043362 0.177267 1.431655 -14.115814 0.485044 2.335960 -23.457511 -0.000002 0.000000 0.000003 4.725662 17.696571 5.717016 0.000000 0.000000 0.000000 -15.174703 -1.505995 66.289923 0.000001 21.983642 -0.000009 13.660425 9.640866 0.382059 -7.540277 -3.885176 -4.751887 7.955427 -28.077798 -3.121264 -4.006976 -18.468396 -17.389969 -0.000001 0.000002 0.000000 0.089109 -1.122873 14.767911 0.350774 -1.774863 22.357639 0.174022 -1.262496 15.696012 -0.000001 0.000001 -0.000002 0.538723 -4.362389 26.501897 0.346748 -1.765041 22.227068 0.485760 -2.072720 26.376862 -0.000000 0.000001 0.000001 2.106470 -6.664475 35.220519 0.345642 -1.762363 22.191542 0.483851 -2.068863 26.323961 0.000000 0.000001 0.000001 1.527460 -7.652284 42.510353 0.343288 -1.756548 22.114479 0.482104 -2.065328 26.275471 0.000000 -0.000000 0.000000 -42.208523 8.594275 19.930789 55.186470 8.727886 -1.615521 16.153097 2.355602 -9.801145 -31.293581 0.130018 -2.752024 0.000000 -0.000001 0.000000 -32.113056 -5.955040 3.915076 42.237473 -2.661675 -1.160001 -17.317840 -4.151461 -2.843205 5.659621 0.000095 -0.003488 -0.000000 -0.000002 0.000000 
